<svg width="800" height="800" viewBox="0 0 800 800" fill="none" xmlns="http://www.w3.org/2000/svg">
<path d="M522.305 372.668L395.777 274.732L277.642 427.357L404.17 525.293L522.305 372.668Z" fill="black" stroke="black" stroke-miterlimit="10"/>
<path d="M575 745C682.696 745 770 657.696 770 550C770 442.304 682.696 355 575 355C467.304 355 380 442.304 380 550C380 657.696 467.304 745 575 745Z" fill="black" stroke="black" stroke-miterlimit="10"/>
<path d="M225 795C332.696 795 420 707.696 420 600C420 492.304 332.696 405 225 405C117.304 405 30 492.304 30 600C30 707.696 117.304 795 225 795Z" fill="black" stroke="black" stroke-miterlimit="10"/>
<path d="M575 395C682.696 395 770 307.696 770 200C770 92.3045 682.696 5 575 5C467.304 5 380 92.3045 380 200C380 307.696 467.304 395 575 395Z" fill="black" stroke="black" stroke-miterlimit="10"/>
<path d="M225 445C332.696 445 420 357.696 420 250C420 142.304 332.696 55 225 55C117.304 55 30 142.304 30 250C30 357.696 117.304 445 225 445Z" fill="black" stroke="black" stroke-miterlimit="10"/>
<path d="M225 400C307.843 400 375 332.843 375 250C375 167.157 307.843 100 225 100C142.157 100 75 167.157 75 250C75 332.843 142.157 400 225 400Z" fill="#3F5554" stroke="black" stroke-miterlimit="10"/>
<path d="M575 700C657.843 700 725 632.843 725 550C725 467.157 657.843 400 575 400C492.157 400 425 467.157 425 550C425 632.843 492.157 700 575 700Z" fill="#3F5554" stroke="black" stroke-miterlimit="10"/>
<path d="M225 750C307.843 750 375 682.843 375 600C375 517.157 307.843 450 225 450C142.157 450 75 517.157 75 600C75 682.843 142.157 750 225 750Z" fill="#3F5554" stroke="black" stroke-miterlimit="10"/>
<path d="M575 350C657.843 350 725 282.843 725 200C725 117.157 657.843 50 575 50C492.157 50 425 117.157 425 200C425 282.843 492.157 350 575 350Z" fill="#3F5554" stroke="black" stroke-miterlimit="10"/>
<path d="M575 695C657.843 695 725 627.843 725 545C725 462.157 657.843 395 575 395C492.157 395 425 462.157 425 545C425 627.843 492.157 695 575 695Z" fill="#EAE9EC" stroke="black" stroke-miterlimit="10"/>
<path d="M230 745C312.843 745 380 677.843 380 595C380 512.157 312.843 445 230 445C147.157 445 80 512.157 80 595C80 677.843 147.157 745 230 745Z" fill="#EAE9EC" stroke="black" stroke-miterlimit="10"/>
<path d="M575 355C657.843 355 725 287.843 725 205C725 122.157 657.843 55 575 55C492.157 55 425 122.157 425 205C425 287.843 492.157 355 575 355Z" fill="#EAE9EC" stroke="black" stroke-miterlimit="10"/>
</svg>
