<svg width="236" height="289" viewBox="0 0 236 289" fill="none" xmlns="http://www.w3.org/2000/svg">
<mask id="path-1-inside-1_107_6" fill="white">
<path d="M234.778 110.904C237.779 118.262 229.877 154.315 226.253 158.294C221.404 163.655 112.794 278.508 108.999 282.059C106.605 284.294 93.451 288.557 89.6481 288.029C86.0552 287.511 3.47376 199.948 1.36966 196.092C-0.962554 191.821 1.70669 175.389 3.77485 172.133C5.66829 169.155 36.0248 142.717 36.0248 142.717C36.0248 142.717 27.8175 55.0674 28.2029 50.1701C28.6179 44.714 45.7486 10.8005 54.0515 6.69867C58.5959 4.46874 76.6305 9.95212 76.6305 9.95212C76.6305 9.95212 90.396 2.31084 95.6162 0.890261C99.2135 -0.110174 145.501 1.33308 151.141 4.04432C155.794 6.26033 167.465 26.9457 168.47 28.8819C168.47 28.8819 184.68 34.5185 187.079 37.4158C190.268 41.2696 195.469 57.8401 195.469 57.8401C195.469 57.8401 211.667 68.2569 214.366 73.1854C216.636 77.3118 217.955 91.8206 217.955 91.8206C217.955 91.8206 232.498 105.306 234.778 110.904ZM157.687 104.846C155.066 100.068 151.166 96.7911 146.733 96.4033C145.827 96.284 144.94 96.2755 144.041 96.3659C143.163 96.4469 142.288 96.6328 141.468 96.9263C140.633 97.2137 139.859 97.5932 139.129 98.0587C138.399 98.5243 137.729 99.0819 137.146 99.7068C132.389 104.654 132.487 113.241 136.823 119.033C140.651 124.166 147.279 126.147 153.253 123.199C159.485 120.107 161.434 111.745 157.687 104.846ZM143.285 68.4598C143.368 68.595 144.03 69.4507 144.156 69.6194C147.881 74.3331 153.351 75.3392 159.077 72.5044C165.33 69.4031 167.356 60.6725 163.871 54.2535C161.219 49.3431 157.3 45.9549 152.779 45.6202C151.964 45.5526 151.142 45.5683 150.347 45.6641C149.549 45.7753 148.763 45.9605 148.017 46.2472C147.275 46.5184 146.558 46.8851 145.906 47.3285C145.254 47.7718 144.667 48.2918 144.135 48.8669C139.382 53.7986 139.288 62.4337 143.285 68.4598ZM83.2338 18.7813L88.3463 42.0025C88.3882 37.3548 91.0398 25.8389 91.5965 23.0449C91.8148 21.9877 94.5036 16.1342 96.549 12.489L83.2338 18.7813ZM77.6585 46.8052L71.6407 19.9929C67.0542 19.0632 61.3949 18.037 60.3881 18.5356C59.6961 18.8774 54.6743 24.9161 51.0324 30.9777C47.5937 36.6675 44.5869 42.7458 42.9106 46.2893C48.0383 44.7645 54.9608 42.7812 57.7694 42.3795C62.5353 41.6846 72.9117 44.951 77.6585 46.8052ZM26.3401 177.108L26.3861 177.074C26.3543 177.062 26.3431 177.04 26.3431 177.04L26.3401 177.108ZM26.3861 177.074C26.9931 177.529 33.9498 182.606 43.6926 190.883L64.4264 170.756C63.0212 169.601 61.6065 168.477 60.1711 167.362C58.7309 166.262 57.286 165.178 55.8204 164.103C54.3501 163.044 52.8702 162.016 51.3697 160.997C49.8851 159.984 48.3639 158.975 46.8443 158.018L26.3861 177.074ZM116.283 225.632C114.867 223.643 113.41 221.673 111.944 219.735C110.477 217.796 108.974 215.861 107.445 213.95C105.916 212.04 104.378 210.16 102.798 208.299C101.219 206.439 99.6186 204.587 97.9929 202.761C96.1441 200.677 94.2651 198.634 92.3654 196.6C90.4609 194.581 88.531 192.587 86.5757 190.619C84.6045 188.644 82.619 186.715 80.5968 184.79C78.5859 182.887 76.5336 181.002 74.4511 179.157L53.3927 199.299C55.6218 201.302 57.8255 203.331 60.0037 205.384C62.1979 207.444 64.3507 209.522 66.4781 211.625C68.6007 213.744 70.7138 215.894 72.7903 218.047C74.862 220.215 76.8877 222.418 78.9086 224.636C86.3643 232.891 92.5409 240.332 97.3837 246.385L116.283 225.632ZM127.139 243.071C126.77 242.361 126.402 241.651 126.028 240.956C125.639 240.256 125.266 239.561 124.861 238.855C124.467 238.17 124.057 237.479 123.642 236.803C123.232 236.112 122.802 235.43 122.366 234.764L103.822 254.651C107.577 259.617 109.567 262.515 109.567 262.515L127.139 243.071ZM146.874 172.751C153.085 169.668 155.385 160.973 151.19 153.334C148.312 148.061 144.09 145.37 139.405 145.802C138.755 145.832 138.108 145.914 137.478 146.055C136.852 146.18 136.224 146.373 135.638 146.6C135.048 146.842 134.48 147.127 133.935 147.456C133.389 147.784 132.882 148.162 132.413 148.588C127.233 153.116 126.952 161.317 130.492 167.619C130.592 167.812 130.714 167.996 130.83 168.196C130.967 168.386 131.088 168.57 131.226 168.761C131.363 168.951 131.484 169.135 131.642 169.316C131.783 169.491 131.925 169.666 132.088 169.831C135.812 174.492 141.226 175.563 146.901 172.778L146.874 172.751ZM175.505 83.2156C170.939 87.9422 170.425 96.2104 174.213 102.105C177.085 106.53 183.564 109.577 189.889 105.777C196.893 101.562 197.201 88.414 187.903 82.1026C186.912 81.45 185.828 80.9864 184.707 80.699C183.586 80.4116 182.44 80.3219 181.326 80.4171C180.192 80.5217 179.121 80.8233 178.119 81.3065C177.133 81.7956 176.256 82.4475 175.511 83.2526L175.505 83.2156ZM182.098 161.771C188.247 158.717 192.315 147.393 183.473 139.079C178.593 134.479 173.298 135.215 170.078 137.533C164.735 141.377 162.724 149.596 165.606 155.837C165.753 156.169 165.91 156.471 166.082 156.778C166.254 157.085 166.431 157.377 166.629 157.659C166.843 157.948 167.04 158.23 167.259 158.503C167.498 158.766 167.721 159.024 167.96 159.287C171.572 163.388 176.688 164.502 182.12 161.814L182.098 161.771ZM211.931 142.181C217.724 139.302 219.846 130.781 216.752 125.115C214.397 120.801 211.199 118.015 207.401 117.644C206.717 117.556 206.05 117.528 205.375 117.582C204.716 117.643 204.059 117.756 203.431 117.949C202.802 118.143 202.207 118.4 201.646 118.723C201.08 119.06 200.552 119.447 200.078 119.889C195.439 123.931 194.252 131.841 197.429 137.469C197.595 137.739 197.75 137.988 197.916 138.258C198.086 138.513 198.278 138.758 198.469 139.004C198.66 139.249 198.872 139.485 199.089 139.705C199.285 139.935 199.522 140.146 199.744 140.351C202.96 143.714 207.161 144.567 211.963 142.193L211.931 142.181Z"/>
</mask>
<path d="M234.778 110.904C237.779 118.262 229.877 154.315 226.253 158.294C221.404 163.655 112.794 278.508 108.999 282.059C106.605 284.294 93.451 288.557 89.6481 288.029C86.0552 287.511 3.47376 199.948 1.36966 196.092C-0.962554 191.821 1.70669 175.389 3.77485 172.133C5.66829 169.155 36.0248 142.717 36.0248 142.717C36.0248 142.717 27.8175 55.0674 28.2029 50.1701C28.6179 44.714 45.7486 10.8005 54.0515 6.69867C58.5959 4.46874 76.6305 9.95212 76.6305 9.95212C76.6305 9.95212 90.396 2.31084 95.6162 0.890261C99.2135 -0.110174 145.501 1.33308 151.141 4.04432C155.794 6.26033 167.465 26.9457 168.47 28.8819C168.47 28.8819 184.68 34.5185 187.079 37.4158C190.268 41.2696 195.469 57.8401 195.469 57.8401C195.469 57.8401 211.667 68.2569 214.366 73.1854C216.636 77.3118 217.955 91.8206 217.955 91.8206C217.955 91.8206 232.498 105.306 234.778 110.904ZM157.687 104.846C155.066 100.068 151.166 96.7911 146.733 96.4033C145.827 96.284 144.94 96.2755 144.041 96.3659C143.163 96.4469 142.288 96.6328 141.468 96.9263C140.633 97.2137 139.859 97.5932 139.129 98.0587C138.399 98.5243 137.729 99.0819 137.146 99.7068C132.389 104.654 132.487 113.241 136.823 119.033C140.651 124.166 147.279 126.147 153.253 123.199C159.485 120.107 161.434 111.745 157.687 104.846ZM143.285 68.4598C143.368 68.595 144.03 69.4507 144.156 69.6194C147.881 74.3331 153.351 75.3392 159.077 72.5044C165.33 69.4031 167.356 60.6725 163.871 54.2535C161.219 49.3431 157.3 45.9549 152.779 45.6202C151.964 45.5526 151.142 45.5683 150.347 45.6641C149.549 45.7753 148.763 45.9605 148.017 46.2472C147.275 46.5184 146.558 46.8851 145.906 47.3285C145.254 47.7718 144.667 48.2918 144.135 48.8669C139.382 53.7986 139.288 62.4337 143.285 68.4598ZM83.2338 18.7813L88.3463 42.0025C88.3882 37.3548 91.0398 25.8389 91.5965 23.0449C91.8148 21.9877 94.5036 16.1342 96.549 12.489L83.2338 18.7813ZM77.6585 46.8052L71.6407 19.9929C67.0542 19.0632 61.3949 18.037 60.3881 18.5356C59.6961 18.8774 54.6743 24.9161 51.0324 30.9777C47.5937 36.6675 44.5869 42.7458 42.9106 46.2893C48.0383 44.7645 54.9608 42.7812 57.7694 42.3795C62.5353 41.6846 72.9117 44.951 77.6585 46.8052ZM26.3401 177.108L26.3861 177.074C26.3543 177.062 26.3431 177.04 26.3431 177.04L26.3401 177.108ZM26.3861 177.074C26.9931 177.529 33.9498 182.606 43.6926 190.883L64.4264 170.756C63.0212 169.601 61.6065 168.477 60.1711 167.362C58.7309 166.262 57.286 165.178 55.8204 164.103C54.3501 163.044 52.8702 162.016 51.3697 160.997C49.8851 159.984 48.3639 158.975 46.8443 158.018L26.3861 177.074ZM116.283 225.632C114.867 223.643 113.41 221.673 111.944 219.735C110.477 217.796 108.974 215.861 107.445 213.95C105.916 212.04 104.378 210.16 102.798 208.299C101.219 206.439 99.6186 204.587 97.9929 202.761C96.1441 200.677 94.2651 198.634 92.3654 196.6C90.4609 194.581 88.531 192.587 86.5757 190.619C84.6045 188.644 82.619 186.715 80.5968 184.79C78.5859 182.887 76.5336 181.002 74.4511 179.157L53.3927 199.299C55.6218 201.302 57.8255 203.331 60.0037 205.384C62.1979 207.444 64.3507 209.522 66.4781 211.625C68.6007 213.744 70.7138 215.894 72.7903 218.047C74.862 220.215 76.8877 222.418 78.9086 224.636C86.3643 232.891 92.5409 240.332 97.3837 246.385L116.283 225.632ZM127.139 243.071C126.77 242.361 126.402 241.651 126.028 240.956C125.639 240.256 125.266 239.561 124.861 238.855C124.467 238.17 124.057 237.479 123.642 236.803C123.232 236.112 122.802 235.43 122.366 234.764L103.822 254.651C107.577 259.617 109.567 262.515 109.567 262.515L127.139 243.071ZM146.874 172.751C153.085 169.668 155.385 160.973 151.19 153.334C148.312 148.061 144.09 145.37 139.405 145.802C138.755 145.832 138.108 145.914 137.478 146.055C136.852 146.18 136.224 146.373 135.638 146.6C135.048 146.842 134.48 147.127 133.935 147.456C133.389 147.784 132.882 148.162 132.413 148.588C127.233 153.116 126.952 161.317 130.492 167.619C130.592 167.812 130.714 167.996 130.83 168.196C130.967 168.386 131.088 168.57 131.226 168.761C131.363 168.951 131.484 169.135 131.642 169.316C131.783 169.491 131.925 169.666 132.088 169.831C135.812 174.492 141.226 175.563 146.901 172.778L146.874 172.751ZM175.505 83.2156C170.939 87.9422 170.425 96.2104 174.213 102.105C177.085 106.53 183.564 109.577 189.889 105.777C196.893 101.562 197.201 88.414 187.903 82.1026C186.912 81.45 185.828 80.9864 184.707 80.699C183.586 80.4116 182.44 80.3219 181.326 80.4171C180.192 80.5217 179.121 80.8233 178.119 81.3065C177.133 81.7956 176.256 82.4475 175.511 83.2526L175.505 83.2156ZM182.098 161.771C188.247 158.717 192.315 147.393 183.473 139.079C178.593 134.479 173.298 135.215 170.078 137.533C164.735 141.377 162.724 149.596 165.606 155.837C165.753 156.169 165.91 156.471 166.082 156.778C166.254 157.085 166.431 157.377 166.629 157.659C166.843 157.948 167.04 158.23 167.259 158.503C167.498 158.766 167.721 159.024 167.96 159.287C171.572 163.388 176.688 164.502 182.12 161.814L182.098 161.771ZM211.931 142.181C217.724 139.302 219.846 130.781 216.752 125.115C214.397 120.801 211.199 118.015 207.401 117.644C206.717 117.556 206.05 117.528 205.375 117.582C204.716 117.643 204.059 117.756 203.431 117.949C202.802 118.143 202.207 118.4 201.646 118.723C201.08 119.06 200.552 119.447 200.078 119.889C195.439 123.931 194.252 131.841 197.429 137.469C197.595 137.739 197.75 137.988 197.916 138.258C198.086 138.513 198.278 138.758 198.469 139.004C198.66 139.249 198.872 139.485 199.089 139.705C199.285 139.935 199.522 140.146 199.744 140.351C202.96 143.714 207.161 144.567 211.963 142.193L211.931 142.181Z" fill="#D20606"/>
<path d="M234.778 110.904L226.682 114.112L226.685 114.118L234.778 110.904ZM226.253 158.294L219.707 151.805L219.697 151.815L219.687 151.826L226.253 158.294ZM108.999 282.059L115.071 289.028L115.079 289.021L108.999 282.059ZM89.6481 288.029L88.878 297.118L88.8996 297.121L88.9213 297.124L89.6481 288.029ZM1.36966 196.092L8.98618 191.875L8.98466 191.872L1.36966 196.092ZM3.77485 172.133L-3.65638 166.802L-3.65917 166.807L3.77485 172.133ZM36.0248 142.717L41.8856 149.876L45.2395 146.955L44.8027 142.29L36.0248 142.717ZM28.2029 50.1701L36.9936 51.3805L36.9946 51.3681L36.9955 51.3558L28.2029 50.1701ZM54.0515 6.69867L49.9622 -1.63844L49.9524 -1.63363L49.9426 -1.6288L54.0515 6.69867ZM76.6305 9.95212L74.5598 18.7508L78.0165 19.8018L81.0856 18.0981L76.6305 9.95212ZM95.6162 0.890261L98.2504 9.77647L98.2725 9.77048L98.2944 9.76437L95.6162 0.890261ZM151.141 4.04432L147.783 12.341L147.799 12.3484L147.814 12.3557L151.141 4.04432ZM168.47 28.8819L160.758 32.9182L162.536 36.3445L166.064 37.5713L168.47 28.8819ZM187.079 37.4158L193.636 31.6347L193.635 31.6331L187.079 37.4158ZM195.469 57.8401L187.098 60.2811L188.166 63.6822L191.114 65.5785L195.469 57.8401ZM214.366 73.1854L206.757 77.4157L206.762 77.4239L206.766 77.4321L214.366 73.1854ZM217.955 91.8206L209.174 92.2204L209.515 95.9718L212.277 98.5325L217.955 91.8206ZM157.687 104.846L165.312 100.646L165.303 100.628L165.293 100.61L157.687 104.846ZM146.733 96.4033L146.066 105.507L146.253 105.531L146.441 105.548L146.733 96.4033ZM144.041 96.3659L145.262 105.507L145.297 105.504L145.331 105.501L144.041 96.3659ZM141.468 96.9263L144.617 105.654L144.666 105.637L144.714 105.62L141.468 96.9263ZM137.146 99.7068L143.538 106.361L143.581 106.316L143.623 106.271L137.146 99.7068ZM136.823 119.033L143.687 113.642L143.682 113.635L143.676 113.628L136.823 119.033ZM153.253 123.199L157.359 131.529L157.367 131.525L157.375 131.521L153.253 123.199ZM143.285 68.4598L150.649 63.8056L150.558 63.6575L150.462 63.5128L143.285 68.4598ZM144.156 69.6194L137.294 75.0133L137.375 75.1222L137.46 75.2287L144.156 69.6194ZM159.077 72.5044L163.192 80.8288L163.198 80.8261L159.077 72.5044ZM163.871 54.2535L156.233 58.4321L156.239 58.4425L156.245 58.4528L163.871 54.2535ZM152.779 45.6202L152.525 54.7677L152.563 54.7708L152.601 54.7736L152.779 45.6202ZM150.347 45.6641L148.894 36.5475L148.818 36.5567L148.743 36.5672L150.347 45.6641ZM148.017 46.2472L151.314 54.9221L151.376 54.8995L151.438 54.8758L148.017 46.2472ZM145.906 47.3285L150.99 55.0871L150.99 55.087L145.906 47.3285ZM144.135 48.8669L150.521 55.5272L150.578 55.4672L150.635 55.4059L144.135 48.8669ZM83.2338 18.7813L79.2527 10.392L73.0816 13.3083L74.6412 20.3921L83.2338 18.7813ZM88.3463 42.0025L79.7537 43.6134L97.1657 42.5564L88.3463 42.0025ZM91.5965 23.0449L82.969 20.684L82.9625 20.7154L82.9562 20.7468L91.5965 23.0449ZM96.549 12.489L104.224 17.4119L118.595 -8.1998L92.568 4.09977L96.549 12.489ZM77.6585 46.8052L74.9335 55.3769L89.8438 61.2013L86.2424 45.1554L77.6585 46.8052ZM71.6407 19.9929L80.2246 18.3431L78.8445 12.1939L72.8979 10.9885L71.6407 19.9929ZM60.3881 18.5356L64.497 26.8631L64.5039 26.8596L60.3881 18.5356ZM51.0324 30.9777L58.567 36.1415L58.5728 36.1319L58.5785 36.1223L51.0324 30.9777ZM42.9106 46.2893L34.9579 41.9046L25.918 61.014L45.729 55.1231L42.9106 46.2893ZM57.7694 42.3795L59.405 51.4721L59.4161 51.4705L59.4273 51.4688L57.7694 42.3795ZM26.3401 177.108L17.53 176.209L16.6363 195.87L31.7058 184.667L26.3401 177.108ZM26.3431 177.04L34.0546 173.002L18.9938 144.008L17.5331 176.142L26.3431 177.04ZM43.6926 190.883L38.3272 197.872L44.4169 203.045L49.8826 197.74L43.6926 190.883ZM64.4264 170.756L70.6164 177.613L77.9618 170.483L69.6737 163.669L64.4264 170.756ZM60.1711 167.362L65.2119 160.109L65.1806 160.084L65.149 160.06L60.1711 167.362ZM55.8204 164.103L60.651 156.692L60.6188 156.668L60.5864 156.645L55.8204 164.103ZM51.3697 160.997L46.8017 168.594L46.8102 168.6L46.8188 168.606L51.3697 160.997ZM46.8443 158.018L51.1244 150.231L45.4714 146.671L40.7782 151.043L46.8443 158.018ZM116.283 225.632L122.83 232.12L127.756 226.71L123.275 220.416L116.283 225.632ZM111.944 219.735L105.12 225.179L105.12 225.179L111.944 219.735ZM107.445 213.95L100.785 219.606L100.785 219.606L107.445 213.95ZM102.798 208.299L96.3197 214.174L96.3197 214.174L102.798 208.299ZM97.9929 202.761L91.6541 208.797L91.6593 208.803L91.6646 208.809L97.9929 202.761ZM92.3654 196.6L98.5365 190.379L98.5197 190.361L98.5028 190.344L92.3654 196.6ZM86.5757 190.619L92.5399 184.183L92.5313 184.175L92.5227 184.166L86.5757 190.619ZM80.5968 184.79L86.3673 178.165L86.3573 178.156L86.3474 178.146L80.5968 184.79ZM74.4511 179.157L79.966 172.298L73.8899 166.917L68.3053 172.258L74.4511 179.157ZM53.3927 199.299L47.2469 192.399L40.1363 199.2L47.8249 206.111L53.3927 199.299ZM60.0037 205.384L54.2676 212.042L54.2752 212.049L54.2829 212.056L60.0037 205.384ZM66.4781 211.625L72.4124 205.16L72.396 205.144L72.3796 205.128L66.4781 211.625ZM72.7903 218.047L78.8858 211.746L78.8699 211.73L78.854 211.713L72.7903 218.047ZM78.9086 224.636L85.1896 218.536L85.1756 218.52L85.1615 218.505L78.9086 224.636ZM97.3837 246.385L90.7235 252.04L97.255 260.204L103.931 252.873L97.3837 246.385ZM127.139 243.071L133.707 249.536L137.896 244.9L134.851 239.034L127.139 243.071ZM126.028 240.956L133.674 236.794L133.642 236.733L133.608 236.673L126.028 240.956ZM124.861 238.855L132.375 234.455L132.369 234.444L124.861 238.855ZM123.642 236.803L116.201 241.328L116.239 241.393L116.278 241.456L123.642 236.803ZM122.366 234.764L129.58 229.874L123.296 220.257L115.886 228.203L122.366 234.764ZM103.822 254.651L97.3421 248.09L92.1403 253.669L96.9967 260.093L103.822 254.651ZM109.567 262.515L102.479 267.593L108.917 276.967L116.135 268.98L109.567 262.515ZM146.874 172.751L142.752 164.43L131.761 169.884L140.877 179.152L146.874 172.751ZM151.19 153.334L143.574 157.552L143.58 157.564L143.587 157.575L151.19 153.334ZM139.405 145.802L140.241 154.97L140.434 154.961L140.626 154.943L139.405 145.802ZM137.478 146.055L139.567 155.069L139.656 155.051L139.745 155.032L137.478 146.055ZM135.638 146.6L132.196 137.979L132.12 138.009L132.045 138.04L135.638 146.6ZM132.413 148.588L138.285 155.738L138.346 155.684L138.406 155.63L132.413 148.588ZM130.492 167.619L138.205 163.582L138.129 163.437L138.049 163.295L130.492 167.619ZM130.83 168.196L123.352 172.658L123.592 173.071L123.871 173.457L130.83 168.196ZM131.226 168.761L138.185 163.5L138.184 163.499L131.226 168.761ZM131.642 169.316L138.259 163.608L138.148 163.472L138.033 163.34L131.642 169.316ZM132.088 169.831L138.752 164.181L138.438 163.789L138.087 163.431L132.088 169.831ZM146.901 172.778L150.991 181.115L162.054 175.686L152.899 166.377L146.901 172.778ZM175.505 83.2156L184.183 82.0402L181.09 64.1607L169.125 76.5486L175.505 83.2156ZM174.213 102.105L166.959 106.933L166.971 106.952L166.983 106.97L174.213 102.105ZM189.889 105.777L194.585 113.784L194.591 113.78L189.889 105.777ZM187.903 82.1026L192.453 74.4929L192.399 74.4561L192.344 74.4201L187.903 82.1026ZM184.707 80.699L183.013 89.6032L183.013 89.6032L184.707 80.699ZM181.326 80.4171L180.161 71.2709L180.133 71.2732L180.105 71.2758L181.326 80.4171ZM178.119 81.3065L174.08 72.9446L174.039 72.9645L173.998 72.9848L178.119 81.3065ZM175.511 83.2526L166.833 84.428L170.004 102.761L182.011 89.7917L175.511 83.2526ZM182.098 161.771L177.973 153.451L170.018 157.402L174.387 165.81L182.098 161.771ZM183.473 139.079L177.738 145.737L177.746 145.744L183.473 139.079ZM170.078 137.533L175.34 145.168L175.342 145.166L170.078 137.533ZM165.606 155.837L173.587 152.359L173.555 152.285L173.521 152.212L165.606 155.837ZM166.082 156.778L173.643 152.461L173.643 152.461L166.082 156.778ZM166.629 157.659L159.593 162.811L159.668 162.919L159.746 163.024L166.629 157.659ZM167.259 158.503L160.599 164.158L160.789 164.395L160.992 164.62L167.259 158.503ZM167.96 159.287L174.322 153.278L174.275 153.224L174.226 153.17L167.96 159.287ZM182.12 161.814L186.233 170.139L194.206 166.195L189.831 157.775L182.12 161.814ZM211.931 142.181L207.805 133.862L189.144 143.135L209.286 150.783L211.931 142.181ZM216.752 125.115L209.136 129.333L209.137 129.335L216.752 125.115ZM207.401 117.644L206.772 126.752L206.897 126.767L207.022 126.78L207.401 117.644ZM205.375 117.582L204.246 108.433L204.2 108.437L204.154 108.441L205.375 117.582ZM201.646 118.723L197.089 110.634L197.029 110.668L196.971 110.703L201.646 118.723ZM200.078 119.889L205.94 127.048L206.046 126.956L206.149 126.86L200.078 119.889ZM197.429 137.469L189.882 141.811L189.971 141.968L190.066 142.122L197.429 137.469ZM197.916 138.258L190.552 142.912L190.654 143.078L190.763 143.241L197.916 138.258ZM198.469 139.004L191.732 144.562L191.733 144.562L198.469 139.004ZM199.089 139.705L205.553 133.814L205.329 133.551L205.088 133.306L199.089 139.705ZM199.744 140.351L205.836 134.048L205.632 133.834L205.416 133.634L199.744 140.351ZM211.963 142.193L216.074 150.519L234.805 141.259L214.608 133.59L211.963 142.193ZM226.685 114.118C226.389 113.394 226.555 113.361 226.609 114.782C226.653 115.959 226.604 117.574 226.435 119.595C226.097 123.619 225.341 128.582 224.355 133.589C223.372 138.583 222.203 143.407 221.097 147.134C220.54 149.009 220.037 150.48 219.624 151.505C219.066 152.887 219.027 152.551 219.707 151.805L232.8 164.782C234.386 163.041 235.386 160.708 235.943 159.329C236.643 157.592 237.328 155.535 237.975 153.356C239.276 148.975 240.574 143.58 241.644 138.143C242.712 132.719 243.595 127.041 244.008 122.111C244.214 119.656 244.318 117.216 244.235 114.997C244.16 113.022 243.916 110.254 242.87 107.69L226.685 114.118ZM219.687 151.826C217.347 154.414 189.09 184.355 160.793 214.249C146.679 229.161 132.6 244.013 121.814 255.357C116.42 261.03 111.856 265.82 108.523 269.301C106.856 271.042 105.505 272.447 104.517 273.467C104.022 273.978 103.628 274.383 103.334 274.68C103.002 275.017 102.896 275.119 102.919 275.098L115.079 289.021C119.161 285.201 227.988 170.102 232.82 164.761L219.687 151.826ZM102.927 275.09C103.371 274.675 103.601 274.601 103.195 274.825C102.897 274.99 102.423 275.223 101.762 275.51C100.446 276.08 98.7326 276.71 96.9083 277.285C95.0822 277.86 93.3007 278.329 91.8557 278.617C90.0655 278.975 89.7664 278.849 90.3749 278.934L88.9213 297.124C91.4312 297.473 94.2024 297.012 96.0229 296.649C98.1887 296.217 100.558 295.58 102.795 294.876C105.034 294.171 107.295 293.35 109.238 292.508C110.795 291.834 113.307 290.675 115.071 289.028L102.927 275.09ZM90.4181 278.94C91.8988 279.153 92.934 279.718 93.1063 279.81C93.45 279.992 93.6663 280.142 93.7023 280.167C93.7829 280.223 93.701 280.171 93.3933 279.914C92.8066 279.424 91.8949 278.606 90.638 277.423C88.1538 275.086 84.7172 271.702 80.6009 267.554C72.3892 259.281 61.7165 248.222 51.0584 237.025C40.4055 225.833 29.807 214.546 21.752 205.829C17.7202 201.466 14.3516 197.775 11.9402 195.072C10.7292 193.715 9.79892 192.651 9.16025 191.895C8.837 191.513 8.63407 191.263 8.52459 191.123C8.26687 190.794 8.60964 191.185 8.98617 191.875L-6.24686 200.309C-5.73882 201.24 -5.10736 202.036 -4.92894 202.264C-4.60229 202.682 -4.22163 203.143 -3.82357 203.614C-3.01964 204.565 -1.95646 205.778 -0.700983 207.185C1.82059 210.011 5.27688 213.797 9.33921 218.194C17.4723 226.995 28.1382 238.354 38.8428 249.6C49.5422 260.84 60.32 272.01 68.6685 280.421C72.8323 284.616 76.4533 288.186 79.1812 290.752C80.5304 292.022 81.7634 293.142 82.7821 293.993C83.2771 294.406 83.8631 294.876 84.4671 295.294C84.7647 295.5 85.2066 295.791 85.7385 296.073C86.099 296.264 87.2851 296.888 88.878 297.118L90.4181 278.94ZM8.98466 191.872C9.44068 192.708 9.46446 193.195 9.40292 192.831C9.35999 192.577 9.30495 192.07 9.28847 191.275C9.25555 189.686 9.38759 187.612 9.66867 185.375C9.94686 183.16 10.3417 181.018 10.7537 179.332C10.9601 178.487 11.149 177.847 11.2981 177.416C11.4864 176.873 11.4898 177.017 11.2089 177.459L-3.65917 166.807C-5.02956 168.965 -5.85592 171.919 -6.35655 173.967C-6.95379 176.412 -7.46832 179.255 -7.82444 182.089C-8.17767 184.901 -8.40491 187.939 -8.34701 190.734C-8.30036 192.986 -8.07755 196.957 -6.24535 200.312L8.98466 191.872ZM11.2061 177.463C10.83 178.055 10.7424 178.02 11.9723 176.794C12.8856 175.884 14.1478 174.68 15.6772 173.257C18.7248 170.419 22.6455 166.881 26.5447 163.403C30.436 159.931 34.2724 156.548 37.1383 154.032C38.5705 152.774 39.7589 151.734 40.5885 151.008C41.0034 150.646 41.3284 150.362 41.5494 150.169C41.6599 150.073 41.7443 149.999 41.801 149.95C41.8293 149.925 41.8507 149.907 41.8648 149.894C41.8719 149.888 41.8772 149.884 41.8807 149.88C41.8824 149.879 41.8837 149.878 41.8845 149.877C41.885 149.877 41.8852 149.877 41.8854 149.876C41.8856 149.876 41.8856 149.876 36.0248 142.717C30.164 135.557 30.1638 135.557 30.1635 135.557C30.1633 135.558 30.1628 135.558 30.1623 135.558C30.1613 135.559 30.1598 135.561 30.1579 135.562C30.154 135.566 30.1483 135.571 30.1408 135.577C30.1258 135.59 30.1036 135.61 30.0744 135.635C30.016 135.686 29.9298 135.761 29.8175 135.859C29.5929 136.055 29.2639 136.342 28.8449 136.708C28.0071 137.441 26.809 138.489 25.3658 139.757C22.4807 142.29 18.6096 145.704 14.6751 149.214C10.7485 152.717 6.72498 156.347 3.54822 159.304C1.96543 160.778 0.545372 162.128 -0.563896 163.234C-1.3565 164.024 -2.80694 165.467 -3.65638 166.802L11.2061 177.463ZM36.0248 142.717C44.8027 142.29 44.8027 142.29 44.8027 142.289C44.8026 142.289 44.8025 142.288 44.8024 142.287C44.8021 142.284 44.8018 142.28 44.8013 142.275C44.8003 142.264 44.7988 142.249 44.7969 142.228C44.7929 142.186 44.7871 142.123 44.7794 142.04C44.7639 141.875 44.7409 141.629 44.711 141.308C44.651 140.666 44.5632 139.723 44.4515 138.521C44.228 136.117 43.9092 132.677 43.5278 128.534C42.7649 120.246 41.752 109.147 40.7513 97.8983C39.7502 86.6439 38.7634 75.2614 38.0515 66.3975C37.6951 61.9606 37.4106 58.1903 37.2277 55.3957C37.0151 52.1479 37.0133 51.1305 36.9936 51.3805L19.4122 48.9597C19.2962 50.434 19.4665 53.2269 19.629 55.7098C19.8212 58.6459 20.1146 62.5267 20.4735 66.9956C21.1921 75.9432 22.1848 87.3912 23.1873 98.6613C24.1904 109.937 25.2052 121.056 25.9691 129.356C26.3511 133.506 26.6705 136.952 26.8944 139.36C27.0063 140.565 27.0944 141.51 27.1545 142.154C27.1846 142.476 27.2077 142.723 27.2232 142.89C27.231 142.973 27.2369 143.036 27.2409 143.078C27.2429 143.1 27.2444 143.116 27.2454 143.126C27.2459 143.132 27.2463 143.136 27.2465 143.138C27.2466 143.14 27.2467 143.141 27.2468 143.142C27.2469 143.142 27.2469 143.143 36.0248 142.717ZM36.9955 51.3558C36.9416 52.0651 36.8365 51.9893 37.3725 50.4995C37.7958 49.3229 38.4369 47.7527 39.28 45.8678C40.9599 42.1124 43.2842 37.4588 45.8626 32.8163C48.4511 28.1557 51.1997 23.6797 53.7116 20.2088C54.9698 18.4702 56.0801 17.1073 57.0015 16.1374C58.0264 15.0584 58.4091 14.9033 58.1605 15.0261L49.9426 -1.6288C47.6182 -0.480474 45.6494 1.3215 44.1466 2.9036C42.5403 4.5947 40.9468 6.5969 39.425 8.69973C36.3767 12.9118 33.2598 18.0243 30.4759 23.0367C27.6819 28.0674 25.1268 33.1716 23.2185 37.4377C22.2675 39.5635 21.4373 41.57 20.8119 43.3083C20.2992 44.7336 19.568 46.9111 19.4103 48.9844L36.9955 51.3558ZM58.1409 15.0358C57.3257 15.4358 56.8771 15.3877 57.3504 15.3553C57.6997 15.3314 58.3101 15.3335 59.2168 15.4115C61.0286 15.5675 63.3069 15.9605 65.6861 16.4723C68.0234 16.9751 70.2585 17.5487 71.9231 18.0015C72.7503 18.2265 73.4247 18.4185 73.886 18.5522C74.1164 18.619 74.2928 18.6711 74.4078 18.7053C74.4653 18.7224 74.5073 18.735 74.533 18.7427C74.5458 18.7466 74.5545 18.7492 74.559 18.7506C74.5613 18.7513 74.5625 18.7516 74.5626 18.7517C74.5627 18.7517 74.5625 18.7516 74.562 18.7515C74.5618 18.7514 74.5612 18.7512 74.5611 18.7512C74.5604 18.751 74.5598 18.7508 76.6305 9.95212C78.7013 1.15344 78.7004 1.15319 78.6995 1.15292C78.6991 1.1528 78.6982 1.1525 78.6974 1.15226C78.6958 1.15179 78.694 1.15122 78.6918 1.15058C78.6876 1.14929 78.6822 1.14767 78.6758 1.14573C78.6629 1.14183 78.6457 1.13664 78.6243 1.13019C78.5814 1.11729 78.5216 1.09938 78.4459 1.07685C78.2945 1.03182 78.079 0.968273 77.8074 0.889501C77.2647 0.732102 76.4946 0.513069 75.5601 0.258863C73.7012 -0.246778 71.1436 -0.904686 68.4042 -1.49398C65.7067 -2.07428 62.6243 -2.63395 59.7765 -2.879C58.3534 -3.00147 56.8093 -3.06193 55.3025 -2.95887C53.9198 -2.86429 51.9135 -2.59592 49.9622 -1.63844L58.1409 15.0358ZM76.6305 9.95212C81.0856 18.0981 81.0853 18.0983 81.0852 18.0984C81.0852 18.0984 81.085 18.0984 81.0851 18.0984C81.0851 18.0984 81.0853 18.0983 81.0858 18.098C81.0867 18.0975 81.0884 18.0966 81.0909 18.0952C81.096 18.0924 81.1043 18.0877 81.1158 18.0814C81.1388 18.0687 81.1745 18.0489 81.2221 18.0227C81.3174 17.9701 81.4606 17.8913 81.6463 17.7896C82.0179 17.5861 82.5586 17.2915 83.2252 16.9327C84.5615 16.2134 86.3896 15.2435 88.3677 14.2347C92.6605 12.0454 96.6165 10.2211 98.2504 9.77647L92.982 -7.99595C89.3958 -7.02003 83.8589 -4.31335 79.9639 -2.32686C77.8481 -1.24783 75.9086 -0.21862 74.5006 0.53925C73.7952 0.918968 73.2197 1.23248 72.818 1.45244C72.6171 1.56246 72.4595 1.6492 72.3506 1.70925C72.2962 1.73928 72.2539 1.76265 72.2245 1.77893C72.2098 1.78707 72.1983 1.79344 72.1901 1.79799C72.186 1.80026 72.1827 1.80208 72.1803 1.80343C72.179 1.80411 72.178 1.80467 72.1772 1.80512C72.1768 1.80534 72.1764 1.80559 72.1762 1.8057C72.1758 1.80592 72.1754 1.8061 76.6305 9.95212ZM98.2944 9.76437C97.6814 9.93485 97.3601 9.92413 97.9014 9.88014C98.2472 9.85204 98.7794 9.82311 99.5186 9.79986C100.986 9.75371 102.99 9.73811 105.403 9.7562C110.213 9.79226 116.404 9.96008 122.68 10.2434C128.967 10.5273 135.235 10.9226 140.223 11.4042C142.727 11.646 144.802 11.8995 146.348 12.1528C148.28 12.4693 148.408 12.6411 147.783 12.341L154.498 -4.25238C152.464 -5.23023 149.912 -5.69664 148.218 -5.97412C146.14 -6.31474 143.645 -6.61099 140.961 -6.87015C135.571 -7.39046 128.985 -7.80183 122.546 -8.09262C116.094 -8.38392 109.687 -8.55878 104.63 -8.59669C102.109 -8.61558 99.8631 -8.60098 98.0886 -8.54516C97.2068 -8.51743 96.3701 -8.47742 95.6399 -8.41808C95.1052 -8.37463 94.0007 -8.27938 92.938 -7.98385L98.2944 9.76437ZM147.814 12.3557C146.878 11.9098 146.619 11.4955 147.173 12.0601C147.574 12.4688 148.156 13.1409 148.91 14.1158C150.41 16.0552 152.154 18.6241 153.898 21.3619C155.621 24.0671 157.25 26.786 158.512 28.9535C159.142 30.0341 159.673 30.9654 160.072 31.6748C160.271 32.0298 160.434 32.323 160.557 32.5468C160.618 32.6587 160.667 32.7484 160.703 32.8163C160.742 32.8886 160.758 32.9191 160.758 32.9182L176.183 24.8456C175.521 23.5696 172.199 17.659 168.45 11.7741C166.569 8.82163 164.459 5.6827 162.43 3.05979C161.42 1.75352 160.319 0.430889 159.187 -0.723361C158.208 -1.72167 156.567 -3.26711 154.467 -4.26709L147.814 12.3557ZM168.47 28.8819C166.064 37.5713 166.064 37.5711 166.063 37.571C166.063 37.571 166.063 37.5709 166.063 37.5709C166.063 37.5708 166.063 37.5709 166.063 37.571C166.064 37.5712 166.066 37.5718 166.068 37.5727C166.074 37.5745 166.083 37.5777 166.095 37.5821C166.121 37.591 166.161 37.6051 166.215 37.6241C166.323 37.6622 166.486 37.7199 166.698 37.7953C167.12 37.9461 167.734 38.167 168.479 38.4417C169.977 38.9936 171.978 39.7512 174.031 40.5868C176.115 41.4347 178.109 42.3055 179.648 43.0811C180.423 43.4717 180.945 43.7694 181.246 43.9626C181.732 44.2742 181.214 44.0334 180.523 43.1985L193.635 31.6331C192.344 30.0739 190.794 29.0232 189.935 28.472C188.89 27.8023 187.752 27.1843 186.67 26.6391C184.495 25.543 181.988 24.4614 179.719 23.538C177.42 22.6023 175.218 21.7696 173.602 21.1741C172.791 20.8751 172.119 20.633 171.646 20.4643C171.409 20.3798 171.222 20.3136 171.091 20.2677C171.026 20.2447 170.975 20.2268 170.939 20.2142C170.921 20.2079 170.907 20.2029 170.896 20.1993C170.891 20.1975 170.887 20.196 170.883 20.1949C170.882 20.1943 170.88 20.1938 170.879 20.1935C170.879 20.1933 170.878 20.193 170.878 20.1929C170.877 20.1927 170.877 20.1925 168.47 28.8819ZM180.521 43.1969C180.369 43.0124 180.825 43.6297 181.77 45.7459C182.577 47.5514 183.439 49.7505 184.251 51.9622C185.056 54.152 185.772 56.2434 186.288 57.7946C186.546 58.5673 186.751 59.199 186.891 59.6332C186.961 59.8502 187.015 60.0174 187.05 60.1279C187.067 60.1831 187.08 60.224 187.088 60.2499C187.092 60.2628 187.095 60.2719 187.097 60.2772C187.098 60.2798 187.098 60.2814 187.098 60.2821C187.099 60.2824 187.099 60.2825 187.099 60.2823C187.099 60.2823 187.098 60.2819 187.098 60.2819C187.098 60.2815 187.098 60.2811 195.469 57.8401C203.841 55.399 203.841 55.3984 203.84 55.3978C203.84 55.3975 203.84 55.3968 203.84 55.3963C203.84 55.3951 203.839 55.3936 203.839 55.392C203.837 55.3886 203.836 55.3842 203.834 55.3789C203.831 55.3682 203.826 55.3535 203.821 55.3349C203.809 55.2978 203.792 55.2453 203.771 55.1782C203.728 55.044 203.667 54.8515 203.588 54.6078C203.431 54.1208 203.206 53.4278 202.926 52.5868C202.367 50.9106 201.583 48.6186 200.689 46.184C199.803 43.7714 198.766 41.1053 197.7 38.72C196.774 36.6453 195.383 33.7461 193.636 31.6347L180.521 43.1969ZM195.469 57.8401C191.114 65.5785 191.114 65.5782 191.114 65.5779C191.113 65.5779 191.113 65.5777 191.113 65.5776C191.113 65.5774 191.113 65.5775 191.113 65.5776C191.114 65.578 191.115 65.5789 191.117 65.5805C191.122 65.5836 191.131 65.5892 191.143 65.5972C191.168 65.6131 191.207 65.6386 191.261 65.6732C191.367 65.7424 191.529 65.8479 191.739 65.9857C192.159 66.2615 192.769 66.6658 193.513 67.1679C195.007 68.1764 197.008 69.5586 199.071 71.0732C201.159 72.6057 203.186 74.1834 204.784 75.5894C206.706 77.2794 207.002 77.8638 206.757 77.4157L221.975 68.955C220.381 66.0427 217.641 63.4768 215.766 61.8275C213.568 59.8942 211.039 57.9436 208.74 56.2558C206.417 54.5502 204.2 53.0201 202.572 51.9215C201.755 51.37 201.079 50.9219 200.603 50.6089C200.364 50.4522 200.175 50.3291 200.043 50.2433C199.977 50.2004 199.925 50.1668 199.889 50.143C199.87 50.1311 199.856 50.1217 199.845 50.1148C199.84 50.1113 199.835 50.1085 199.832 50.1063C199.83 50.1052 199.829 50.1042 199.827 50.1035C199.827 50.1031 199.826 50.1026 199.826 50.1024C199.825 50.102 199.824 50.1016 195.469 57.8401ZM206.766 77.4321C206.61 77.1476 206.878 77.6377 207.308 79.5219C207.673 81.1181 208.008 83.0444 208.296 84.9922C208.581 86.9161 208.802 88.7382 208.953 90.0867C209.028 90.7576 209.084 91.3033 209.122 91.676C209.14 91.8622 209.154 92.0047 209.163 92.0976C209.167 92.144 209.17 92.1779 209.172 92.1986C209.173 92.209 209.174 92.2161 209.174 92.2197C209.174 92.2216 209.174 92.2225 209.175 92.2227C209.175 92.2227 209.174 92.2226 209.174 92.2222C209.174 92.222 209.174 92.2215 209.174 92.2215C209.174 92.221 209.174 92.2204 217.955 91.8206C226.735 91.4209 226.735 91.4202 226.735 91.4195C226.735 91.4192 226.735 91.4184 226.735 91.4178C226.735 91.4165 226.734 91.4151 226.734 91.4134C226.734 91.41 226.734 91.4057 226.733 91.4005C226.732 91.3902 226.731 91.3764 226.729 91.3592C226.726 91.3247 226.722 91.2767 226.716 91.2158C226.704 91.0941 226.687 90.9209 226.666 90.7023C226.622 90.2654 226.558 89.6454 226.474 88.8916C226.306 87.3908 226.056 85.3278 225.727 83.1087C225.402 80.9134 224.982 78.4389 224.461 76.154C224.005 74.1573 223.258 71.2863 221.966 68.9386L206.766 77.4321ZM217.955 91.8206C212.277 98.5325 212.276 98.5321 212.276 98.5318C212.276 98.5318 212.276 98.5315 212.276 98.5314C212.276 98.5313 212.276 98.5313 212.276 98.5316C212.276 98.5321 212.278 98.5334 212.28 98.5356C212.285 98.5398 212.293 98.5472 212.304 98.5577C212.327 98.5788 212.362 98.6122 212.411 98.6573C212.507 98.7476 212.653 98.8846 212.843 99.0633C213.221 99.4209 213.771 99.9438 214.441 100.591C215.785 101.889 217.587 103.664 219.443 105.591C221.317 107.537 223.152 109.541 224.605 111.311C226.279 113.351 226.732 114.234 226.682 114.112L242.873 107.695C241.683 104.775 239.463 101.873 237.77 99.8097C235.855 97.4769 233.626 95.0596 231.58 92.9344C229.515 90.7904 227.538 88.8443 226.084 87.4396C225.355 86.7348 224.751 86.1604 224.325 85.7587C224.113 85.5577 223.944 85.3996 223.826 85.2896C223.768 85.2346 223.721 85.1916 223.689 85.1613C223.673 85.1461 223.66 85.1341 223.65 85.1253C223.646 85.1209 223.642 85.1174 223.639 85.1146C223.637 85.1132 223.636 85.1121 223.635 85.1111C223.634 85.1106 223.634 85.1101 223.634 85.1098C223.633 85.1093 223.632 85.1088 217.955 91.8206ZM165.293 100.61C161.721 94.0993 155.471 87.998 147.025 87.2591L146.441 105.548C146.86 105.584 148.411 106.038 150.081 109.083L165.293 100.61ZM147.399 87.3002C145.804 87.09 144.261 87.0795 142.751 87.2313L145.331 105.501C145.62 105.472 145.85 105.478 146.066 105.507L147.399 87.3002ZM142.82 87.2247C141.297 87.3651 139.738 87.6897 138.223 88.2324L144.714 105.62C144.837 105.576 145.028 105.529 145.262 105.507L142.82 87.2247ZM138.319 88.1985C136.85 88.704 135.496 89.3699 134.245 90.1677L144.012 105.95C144.221 105.816 144.416 105.723 144.617 105.654L138.319 88.1985ZM134.245 90.1677C132.936 91.0029 131.731 92.0051 130.669 93.1426L143.623 106.271C143.728 106.159 143.861 106.046 144.012 105.95L134.245 90.1677ZM130.754 93.0529C122.613 101.518 123.159 115.341 129.97 124.439L143.676 113.628C141.815 111.142 142.164 107.79 143.538 106.361L130.754 93.0529ZM129.959 124.424C136.444 133.119 147.672 136.308 157.359 131.529L149.148 114.87C146.887 115.986 144.858 115.213 143.687 113.642L129.959 124.424ZM157.375 131.521C168.606 125.949 171.241 111.561 165.312 100.646L150.061 109.047C151.627 111.929 150.365 114.266 149.132 114.878L157.375 131.521ZM135.922 73.1141C136.059 73.3364 136.177 73.5093 136.22 73.5726C136.279 73.6581 136.331 73.7312 136.367 73.7816C136.44 73.8826 136.51 73.9777 136.563 74.0493C136.672 74.1962 136.793 74.3561 136.895 74.4899C136.999 74.6274 137.105 74.7655 137.183 74.8675C137.283 74.9985 137.304 75.027 137.294 75.0133L151.018 64.2256C150.971 64.1634 150.922 64.0984 150.892 64.0588C150.855 64.0113 150.814 63.9572 150.774 63.9046C150.69 63.7945 150.601 63.6786 150.514 63.5642C150.425 63.4461 150.357 63.3561 150.315 63.2993C150.292 63.2691 150.296 63.2738 150.316 63.3015C150.326 63.3153 150.355 63.3559 150.395 63.414C150.415 63.4439 150.446 63.4894 150.484 63.5462C150.518 63.5989 150.578 63.6897 150.649 63.8056L135.922 73.1141ZM137.46 75.2287C140.635 79.2461 144.857 81.9909 149.707 82.9163C154.446 83.8206 159.084 82.8628 163.192 80.8288L154.962 64.1799C153.345 64.9807 152.384 64.9373 152.025 64.8688C151.778 64.8215 151.402 64.7064 150.852 64.0102L137.46 75.2287ZM163.198 80.8261C174.26 75.3395 177.278 60.7013 171.497 50.0542L156.245 58.4528C156.712 59.3146 156.914 60.5803 156.588 61.8708C156.269 63.1322 155.598 63.8645 154.957 64.1826L163.198 80.8261ZM171.508 50.0749C167.97 43.5217 161.683 37.1127 152.957 36.4668L152.601 54.7736C152.917 54.797 154.469 55.1646 156.233 58.4321L171.508 50.0749ZM153.033 36.4727C151.644 36.3575 150.25 36.384 148.894 36.5475L151.801 54.7806C152.033 54.7526 152.284 54.7477 152.525 54.7677L153.033 36.4727ZM148.743 36.5672C147.442 36.7482 146.03 37.0673 144.595 37.6185L151.438 54.8758C151.496 54.8536 151.655 54.8024 151.952 54.761L148.743 36.5672ZM144.719 37.5722C143.354 38.0714 142.037 38.7438 140.822 39.5699L150.99 55.087C151.079 55.0264 151.196 54.9654 151.314 54.9221L144.719 37.5722ZM140.822 39.5698C139.594 40.4046 138.54 41.3496 137.634 42.3278L150.635 55.4059C150.794 55.2339 150.914 55.139 150.99 55.0871L140.822 39.5698ZM137.749 42.2065C129.71 50.5485 129.975 64.1608 136.109 73.4069L150.462 63.5128C148.6 60.7066 149.054 57.0487 150.521 55.5272L137.749 42.2065ZM74.6412 20.3921L79.7537 43.6134L96.9389 40.3917L91.8264 17.1705L74.6412 20.3921ZM97.1657 42.5564C97.1775 41.2461 97.6572 38.059 98.4282 34.078C99.2239 29.9693 99.8275 27.3968 100.237 25.3429L82.9562 20.7468C82.8087 21.487 81.8082 26.0694 81.1285 29.5792C80.4241 33.2166 79.557 38.1113 79.5269 41.4486L97.1657 42.5564ZM100.224 25.4057C100.103 25.9896 99.9612 26.3257 100.05 26.0846C100.087 25.9817 100.165 25.7813 100.294 25.4715C100.55 24.86 100.918 24.0294 101.363 23.074C102.261 21.1447 103.343 18.9811 104.224 17.4119L88.8741 7.56615C87.7092 9.64212 86.4242 12.2279 85.4123 14.4009C84.902 15.4967 84.4295 16.5555 84.0552 17.4527C83.8284 17.9962 83.2345 19.3981 82.969 20.684L100.224 25.4057ZM92.568 4.09977L79.2527 10.392L87.2149 27.1705L100.53 20.8782L92.568 4.09977ZM86.2424 45.1554L80.2246 18.3431L63.0568 21.6427L69.0746 48.455L86.2424 45.1554ZM72.8979 10.9885C70.5698 10.5165 67.82 9.98893 65.4648 9.64307C64.306 9.47291 63.064 9.31962 61.9391 9.2582C61.3845 9.22791 60.6835 9.20943 59.9468 9.25997C59.4569 9.29358 57.9031 9.40392 56.2722 10.2116L64.5039 26.8596C63.7036 27.256 63.0318 27.4116 62.7225 27.4737C62.3718 27.5441 62.1119 27.5661 61.9982 27.5739C61.7817 27.5888 61.7238 27.5759 61.913 27.5863C62.2757 27.6061 62.924 27.6739 63.8792 27.8142C65.752 28.0892 68.1252 28.5396 70.3835 28.9974L72.8979 10.9885ZM56.2791 10.2082C55.2768 10.7033 54.5741 11.3123 54.4158 11.4471C54.1192 11.6999 53.8626 11.9467 53.6725 12.1359C53.2844 12.5221 52.8852 12.9574 52.5095 13.3836C51.7433 14.2526 50.8253 15.3678 49.8497 16.6219C47.9062 19.1201 45.53 22.4315 43.4862 25.8332L58.5785 36.1223C60.1767 33.4623 62.1324 30.7235 63.7832 28.6016C64.6048 27.5455 65.2996 26.7082 65.7834 26.1594C66.0328 25.8766 66.1678 25.7367 66.2011 25.7036C66.2216 25.6832 66.1474 25.7592 66.0021 25.883C65.9952 25.8889 65.4128 26.4106 64.497 26.8631L56.2791 10.2082ZM43.4978 25.814C39.8398 31.8666 36.6886 38.2461 34.9579 41.9046L50.8633 50.6739C52.4852 47.2455 55.3476 41.4684 58.567 36.1415L43.4978 25.814ZM45.729 55.1231C51.1543 53.5098 57.3537 51.7655 59.405 51.4721L56.1339 33.2869C52.5679 33.797 44.9223 36.0192 40.0922 37.4555L45.729 55.1231ZM59.4273 51.4688C59.3857 51.4749 59.5388 51.4511 59.9486 51.4655C60.3406 51.4793 60.8562 51.524 61.4992 51.6129C62.796 51.7923 64.3527 52.1151 66.0454 52.5453C69.443 53.4088 72.873 54.5721 74.9335 55.3769L80.3835 38.2335C77.6972 37.1841 73.5656 35.7871 69.3969 34.7276C65.6612 33.7781 60.3458 32.6728 56.1116 33.2902L59.4273 51.4688ZM31.7058 184.667L31.7519 184.632L21.0204 169.516L20.9743 169.55L31.7058 184.667ZM29.0311 168.471C30.3913 168.988 31.5013 169.788 32.3503 170.651C32.764 171.072 33.1036 171.495 33.3804 171.89C33.5191 172.088 33.6434 172.281 33.7548 172.466C33.8106 172.559 33.8633 172.65 33.9132 172.739C33.9381 172.784 33.9623 172.828 33.9859 172.872C33.9977 172.894 34.0093 172.916 34.0208 172.937C34.0265 172.948 34.0322 172.959 34.0378 172.97C34.0407 172.975 34.0435 172.98 34.0463 172.986C34.0477 172.988 34.0498 172.992 34.0505 172.994C34.0526 172.998 34.0546 173.002 26.3431 177.04C18.6316 181.079 18.6337 181.083 18.6358 181.087C18.6365 181.088 18.6386 181.092 18.64 181.095C18.6428 181.1 18.6456 181.106 18.6484 181.111C18.6541 181.122 18.6598 181.133 18.6655 181.144C18.677 181.165 18.6886 181.187 18.7004 181.209C18.724 181.253 18.7483 181.297 18.7734 181.342C18.8234 181.432 18.8764 181.523 18.9325 181.617C19.0446 181.803 19.1701 181.998 19.3104 182.198C19.5903 182.598 19.9347 183.026 20.3551 183.454C21.2177 184.331 22.3491 185.148 23.7412 185.677L29.0311 168.471ZM17.5331 176.142L17.53 176.209L35.1501 178.007L35.1531 177.939L17.5331 176.142ZM21.475 184.426C22.0786 184.878 28.8282 189.802 38.3272 197.872L49.0581 183.894C44.0672 179.654 39.7847 176.229 36.6616 173.798C35.0992 172.582 33.8264 171.614 32.8997 170.917C32.1294 170.338 31.2216 169.665 31.2973 169.722L21.475 184.426ZM49.8826 197.74L70.6164 177.613L58.2365 163.899L37.5027 184.026L49.8826 197.74ZM69.6737 163.669C68.1877 162.447 66.7026 161.267 65.2119 160.109L55.1303 174.614C56.5104 175.687 57.8547 176.755 59.1791 177.844L69.6737 163.669ZM65.149 160.06C63.6666 158.928 62.1722 157.807 60.651 156.692L50.9899 171.515C52.3998 172.549 53.7953 173.596 55.1932 174.663L65.149 160.06ZM60.5864 156.645C59.0299 155.523 57.4762 154.444 55.9206 153.388L46.8188 168.606C48.2643 169.587 49.6703 170.565 51.0545 171.562L60.5864 156.645ZM55.9377 153.399C54.3889 152.343 52.7679 151.267 51.1244 150.231L42.5643 165.804C43.9598 166.683 45.3813 167.625 46.8017 168.594L55.9377 153.399ZM40.7782 151.043L20.32 170.099L32.4523 184.049L52.9105 164.992L40.7782 151.043ZM123.275 220.416C121.791 218.332 120.275 216.283 118.767 214.29L105.12 225.179C106.545 227.063 107.944 228.954 109.291 230.847L123.275 220.416ZM118.767 214.29C117.25 212.284 115.692 210.279 114.104 208.295L100.785 219.606C102.255 221.443 103.704 223.307 105.12 225.179L118.767 214.29ZM114.104 208.295C112.532 206.329 110.932 204.374 109.277 202.425L96.3197 214.174C97.8241 215.946 99.3008 217.75 100.785 219.606L114.104 208.295ZM109.277 202.425C107.66 200.52 106.009 198.609 104.321 196.713L91.6646 208.809C93.2282 210.566 94.7772 212.357 96.3197 214.174L109.277 202.425ZM104.332 196.725C102.408 194.557 100.468 192.448 98.5365 190.379L86.1942 202.82C88.0616 204.819 89.8799 206.797 91.6541 208.797L104.332 196.725ZM98.5028 190.344C96.5413 188.265 94.5537 186.211 92.5399 184.183L80.6115 197.054C82.5083 198.964 84.3805 200.898 86.2279 202.856L98.5028 190.344ZM92.5227 184.166C90.4814 182.121 88.4354 180.134 86.3673 178.165L74.8264 191.415C76.8025 193.296 78.7275 195.166 80.6287 197.071L92.5227 184.166ZM86.3474 178.146C84.2657 176.176 82.1348 174.219 79.966 172.298L68.9362 186.017C70.9325 187.785 72.9061 189.597 74.8463 191.434L86.3474 178.146ZM68.3053 172.258L47.2469 192.399L59.5384 206.198L80.5969 186.057L68.3053 172.258ZM47.8249 206.111C49.9975 208.064 52.145 210.041 54.2676 212.042L65.7398 198.727C63.5059 196.621 61.2461 194.541 58.9604 192.486L47.8249 206.111ZM54.2829 212.056C56.4114 214.054 58.5039 216.074 60.5765 218.123L72.3796 205.128C70.1975 202.97 67.9843 200.834 65.7245 198.713L54.2829 212.056ZM60.5437 218.09C62.623 220.166 64.693 222.272 66.7266 224.38L78.854 211.713C76.7346 209.516 74.5784 207.322 72.4124 205.16L60.5437 218.09ZM66.6948 224.347C68.6861 226.431 70.6504 228.567 72.6556 230.768L85.1615 218.505C83.125 216.269 81.038 213.999 78.8858 211.746L66.6948 224.347ZM72.6276 230.737C79.9252 238.817 85.9742 246.103 90.7235 252.04L104.044 240.73C99.1076 234.56 92.8034 226.965 85.1896 218.536L72.6276 230.737ZM103.931 252.873L122.83 232.12L109.736 219.143L90.8366 239.897L103.931 252.873ZM134.851 239.034C134.489 238.336 134.087 237.562 133.674 236.794L118.382 245.119C118.716 245.74 119.052 246.386 119.426 247.107L134.851 239.034ZM133.608 236.673C133.312 236.14 132.819 235.229 132.375 234.455L117.346 243.254C117.713 243.894 117.966 244.372 118.448 245.24L133.608 236.673ZM132.369 234.444C131.931 233.682 131.473 232.91 131.006 232.15L116.278 241.456C116.641 242.047 117.003 242.657 117.353 243.265L132.369 234.444ZM131.083 232.278C130.581 231.431 130.07 230.623 129.58 229.874L115.152 239.654C115.534 240.237 115.884 240.793 116.201 241.328L131.083 232.278ZM115.886 228.203L97.3421 248.09L110.303 261.212L128.847 241.325L115.886 228.203ZM96.9967 260.093C98.8233 262.509 100.212 264.411 101.136 265.696C101.598 266.338 101.943 266.826 102.168 267.147C102.28 267.307 102.363 267.426 102.415 267.501C102.441 267.538 102.459 267.565 102.47 267.58C102.475 267.588 102.479 267.593 102.48 267.595C102.481 267.596 102.481 267.597 102.481 267.596C102.481 267.596 102.481 267.596 102.48 267.595C102.48 267.595 102.48 267.595 102.48 267.594C102.48 267.594 102.479 267.594 102.479 267.594C102.479 267.594 102.479 267.593 109.567 262.515C116.654 257.436 116.654 257.436 116.654 257.436C116.654 257.436 116.653 257.435 116.653 257.435C116.653 257.434 116.652 257.434 116.652 257.433C116.651 257.432 116.65 257.431 116.649 257.429C116.647 257.426 116.644 257.422 116.641 257.418C116.635 257.409 116.627 257.397 116.617 257.382C116.596 257.353 116.568 257.312 116.533 257.261C116.461 257.158 116.359 257.011 116.226 256.822C115.961 256.444 115.574 255.897 115.069 255.194C114.059 253.789 112.576 251.759 110.648 249.209L96.9967 260.093ZM116.135 268.98L133.707 249.536L120.57 236.606L102.998 256.05L116.135 268.98ZM150.996 181.072C162.235 175.494 165.189 160.738 158.793 149.093L143.587 157.575C145.582 161.207 143.936 163.842 142.752 164.43L150.996 181.072ZM158.806 149.116C154.584 141.38 147.234 135.826 138.184 136.661L140.626 154.943C141.06 154.903 141.336 154.986 141.645 155.183C142.026 155.426 142.761 156.062 143.574 157.552L158.806 149.116ZM138.568 136.634C137.471 136.684 136.343 136.825 135.21 137.078L139.745 155.032C139.873 155.003 140.039 154.979 140.241 154.97L138.568 136.634ZM135.388 137.04C134.225 137.273 133.142 137.613 132.196 137.979L139.081 155.22C139.305 155.133 139.479 155.087 139.567 155.069L135.388 137.04ZM132.045 138.04C131.072 138.439 130.134 138.91 129.232 139.453L138.638 155.459C138.827 155.344 139.024 155.245 139.232 155.16L132.045 138.04ZM129.232 139.453C128.231 140.056 127.291 140.754 126.42 141.546L138.406 155.63C138.473 155.569 138.548 155.513 138.638 155.459L129.232 139.453ZM126.541 141.438C117.468 149.369 117.757 162.724 122.934 171.942L138.049 163.295C136.148 159.91 136.999 156.862 138.285 155.738L126.541 141.438ZM122.779 171.655C122.978 172.038 123.165 172.349 123.251 172.493C123.275 172.532 123.297 172.568 123.313 172.594C123.331 172.623 123.339 172.638 123.349 172.654C123.367 172.684 123.364 172.679 123.352 172.658L138.308 163.733C138.238 163.613 138.176 163.51 138.135 163.443C138.116 163.411 138.095 163.378 138.084 163.359C138.071 163.337 138.064 163.325 138.059 163.317C138.048 163.299 138.061 163.32 138.084 163.361C138.108 163.403 138.151 163.48 138.205 163.582L122.779 171.655ZM123.871 173.457C123.871 173.457 123.879 173.468 123.952 173.574C124.008 173.655 124.129 173.832 124.267 174.022L138.184 163.499C138.185 163.5 138.177 163.488 138.104 163.383C138.048 163.302 137.927 163.125 137.789 162.935L123.871 173.457ZM124.266 174.022C124.265 174.019 124.267 174.022 124.275 174.034C124.285 174.047 124.294 174.06 124.314 174.089C124.346 174.134 124.413 174.229 124.489 174.334C124.647 174.551 124.907 174.898 125.25 175.292L138.033 163.34C138.219 163.553 138.339 163.717 138.363 163.75C138.372 163.762 138.373 163.764 138.338 163.716C138.325 163.697 138.301 163.663 138.278 163.63C138.252 163.594 138.221 163.55 138.185 163.5L124.266 174.022ZM125.025 175.024C125.126 175.149 125.55 175.683 126.089 176.231L138.087 163.431C138.212 163.559 138.295 163.655 138.321 163.685C138.335 163.701 138.339 163.706 138.327 163.692C138.314 163.675 138.297 163.655 138.259 163.608L125.025 175.024ZM125.424 175.48C128.569 179.418 132.735 182.154 137.539 183.108C142.251 184.044 146.876 183.135 150.991 181.115L142.812 164.441C141.251 165.207 140.332 165.154 139.987 165.086C139.733 165.036 139.33 164.905 138.752 164.181L125.424 175.48ZM152.899 166.377L152.872 166.349L140.877 179.152L140.904 179.18L152.899 166.377ZM169.125 76.5486C161.568 84.3728 160.876 97.4691 166.959 106.933L181.468 97.2781C179.973 94.9516 180.311 91.5117 181.884 89.8827L169.125 76.5486ZM166.983 106.97C172.203 115.012 183.784 120.272 194.585 113.784L185.192 97.771C184.569 98.1455 184.086 98.2696 183.755 98.3081C183.417 98.3475 183.109 98.3121 182.821 98.2248C182.166 98.026 181.657 97.5698 181.444 97.2405L166.983 106.97ZM194.591 113.78C207.849 105.802 206.653 84.1321 192.453 74.4929L183.353 89.7123C185.272 91.0146 186.117 92.8922 186.199 94.693C186.293 96.7417 185.439 97.6226 185.186 97.7745L194.591 113.78ZM192.344 74.4201C190.429 73.1588 188.403 72.3081 186.401 71.7948L183.013 89.6032C183.253 89.6648 183.396 89.7412 183.462 89.7851L192.344 74.4201ZM186.401 71.7948C184.31 71.2586 182.197 71.0969 180.161 71.2709L182.492 89.5633C182.683 89.5469 182.863 89.5647 183.013 89.6032L186.401 71.7948ZM180.105 71.2758C177.97 71.4727 175.948 72.0439 174.08 72.9446L182.157 89.6683C182.293 89.6027 182.413 89.5707 182.547 89.5584L180.105 71.2758ZM173.998 72.9848C172.141 73.9061 170.455 75.154 169.011 76.7136L182.011 89.7917C182.058 89.741 182.124 89.6852 182.239 89.6281L173.998 72.9848ZM184.189 82.0772L184.183 82.0402L166.826 84.3911L166.833 84.428L184.189 82.0772ZM186.222 170.091C191.993 167.225 196.031 161.091 197.11 154.35C198.273 147.077 196.058 138.862 189.201 132.413L177.746 145.744C178.857 146.789 179.327 147.689 179.543 148.333C179.769 149.003 179.823 149.71 179.705 150.445C179.583 151.208 179.282 151.944 178.875 152.539C178.454 153.154 178.073 153.402 177.973 153.451L186.222 170.091ZM189.208 132.42C180.714 124.416 170.799 125.592 164.814 129.901L175.342 145.166C175.617 144.969 175.961 144.869 176.236 144.881C176.354 144.886 176.502 144.911 176.702 144.998C176.901 145.086 177.256 145.282 177.738 145.737L189.208 132.42ZM164.816 129.899C156.163 136.125 152.875 149.03 157.692 159.462L173.521 152.212C172.573 150.161 173.307 146.63 175.34 145.168L164.816 129.899ZM157.626 159.315C157.934 160.012 158.244 160.601 158.521 161.095L173.643 152.461C173.607 152.396 173.59 152.364 173.584 152.352C173.579 152.343 173.582 152.347 173.587 152.359L157.626 159.315ZM158.521 161.095C158.799 161.59 159.151 162.181 159.593 162.811L173.665 152.507C173.689 152.541 173.7 152.558 173.697 152.553C173.693 152.547 173.676 152.52 173.643 152.461L158.521 161.095ZM159.746 163.024C159.751 163.031 160.232 163.699 160.599 164.158L173.918 152.847C173.932 152.865 173.92 152.851 173.847 152.752C173.809 152.7 173.773 152.651 173.713 152.568C173.659 152.494 173.589 152.397 173.512 152.294L159.746 163.024ZM160.992 164.62C161.07 164.705 161.15 164.795 161.271 164.931C161.381 165.055 161.532 165.226 161.694 165.404L174.226 153.17C174.149 153.085 174.069 152.995 173.948 152.859C173.838 152.735 173.687 152.564 173.525 152.386L160.992 164.62ZM161.598 165.297C164.674 168.789 168.652 171.261 173.215 172.123C177.733 172.976 182.196 172.137 186.233 170.139L178.007 153.489C176.612 154.179 175.801 154.126 175.5 154.069C175.244 154.021 174.858 153.886 174.322 153.278L161.598 165.297ZM189.831 157.775L189.809 157.732L174.387 165.81L174.409 165.853L189.831 157.775ZM216.057 150.5C221.488 147.801 224.785 142.711 226.172 137.598C227.548 132.526 227.341 126.341 224.366 120.894L209.137 129.335C209.257 129.555 209.536 130.463 209.177 131.788C208.828 133.072 208.167 133.682 207.805 133.862L216.057 150.5ZM224.368 120.897C221.17 115.039 215.698 109.281 207.78 108.507L207.022 126.78C207.039 126.781 207.047 126.783 207.074 126.794C207.107 126.809 207.213 126.86 207.392 127.006C207.771 127.316 208.411 128.005 209.136 129.333L224.368 120.897ZM208.03 108.535C206.877 108.389 205.61 108.323 204.246 108.433L206.504 126.732C206.49 126.733 206.556 126.724 206.772 126.752L208.03 108.535ZM204.154 108.441C203.07 108.541 201.832 108.74 200.54 109.138L206.321 126.761C206.3 126.768 206.31 126.764 206.358 126.755C206.407 126.746 206.485 126.734 206.596 126.724L204.154 108.441ZM200.54 109.138C199.339 109.507 198.184 110.005 197.089 110.634L206.203 126.811C206.23 126.795 206.266 126.778 206.321 126.761L200.54 109.138ZM196.971 110.703C195.97 111.301 194.961 112.029 194.007 112.919L206.149 126.86C206.142 126.866 206.19 126.82 206.321 126.742L196.971 110.703ZM194.216 112.731C186.446 119.501 184.473 132.23 189.882 141.811L204.976 133.127C204.03 131.451 204.432 128.362 205.94 127.048L194.216 112.731ZM190.066 142.122C190.157 142.271 190.244 142.413 190.324 142.541C190.405 142.672 190.478 142.79 190.552 142.912L205.279 133.605C205.188 133.456 205.101 133.314 205.022 133.186C204.94 133.055 204.868 132.937 204.793 132.815L190.066 142.122ZM190.763 143.241C191.165 143.841 191.581 144.367 191.732 144.562L205.206 133.446C205.155 133.381 205.121 133.337 205.089 133.296C205.059 133.256 205.04 133.232 205.028 133.215C205.001 133.181 205.023 133.208 205.068 133.276L190.763 143.241ZM191.733 144.562C192.202 145.163 192.672 145.681 193.09 146.105L205.088 133.306C205.083 133.301 205.091 133.308 205.108 133.328C205.125 133.347 205.159 133.386 205.205 133.445L191.733 144.562ZM192.625 145.597C193.014 146.054 193.376 146.412 193.606 146.633C193.803 146.822 194.059 147.057 194.072 147.069L205.416 133.634C205.377 133.598 205.34 133.564 205.313 133.539C205.282 133.511 205.263 133.493 205.244 133.475C205.206 133.44 205.2 133.435 205.208 133.442C205.217 133.451 205.255 133.488 205.311 133.545C205.366 133.603 205.451 133.694 205.553 133.814L192.625 145.597ZM193.652 146.655C196.489 149.622 200.102 151.794 204.322 152.487C208.479 153.169 212.482 152.295 216.074 150.519L207.852 133.866C207.246 134.166 206.813 134.287 206.551 134.334C206.421 134.358 206.331 134.364 206.277 134.364C206.224 134.365 206.199 134.361 206.196 134.36C206.193 134.36 206.199 134.361 206.208 134.364C206.217 134.367 206.216 134.368 206.201 134.36C206.176 134.346 206.049 134.27 205.836 134.048L193.652 146.655ZM214.608 133.59L214.576 133.578L209.286 150.783L209.318 150.796L214.608 133.59Z" fill="black" mask="url(#path-1-inside-1_107_6)"/>
</svg>
